:SAMPLES-PER-SECOND 30
:FULLY-SPECIFIED
:DEGREES
58
root  -35.578 37.5106 21.5967 -178.099 -70.0308 172.952
RightUpLeg  -23.635 -16.7309 10.9943
RightLeg  39.6682 -12.5331 -11.2011
RightFoot  -17.124 -0.717589 -11.8784
RightToes  0.00048216 0.542163 -0.142577
Spine  25.227 -4.22522 6.7185
Spine1  9.29894 -6.82568 13.9805
HEad  3.92627 -16.3831 6.82094
LeftShoulder1  9.0944 -14.516 -43.9333
LeftArm  -11.7527 -6.58952 -26.2813
LeftForeArm  35.1323 -40.7456 -7.37844
LeftHand  -0.25398 0.0180481 5.50724
RightShoulder  4.99453 9.26133 33.1851
RightArm  -4.09065 -9.67997 31.5504
RightForeArm  -6.26136 20.8018 5.33292
RightHand  -1.14915 2.74166 -16.5752
LeftUpLeg  -22.4335 18.8947 1.89664
LeftLeg  77.188 1.8236 10.7359
LeftFoot  3.89735 0.219501 -1.84045
LeftToes  1.06246e-005 4.65856e-005 -8.18501e-006
59
root  -37.0373 37.8357 21.8478 -178.004 -64.2377 172.62
RightUpLeg  -20.6692 -12.2947 8.67774
RightLeg  39.7015 -11.1788 -10.0782
RightFoot  -18.2215 -0.734069 -10.1448
RightToes  0.00048216 0.542163 -0.142577
Spine  26.6289 -3.82337 6.44973
Spine1  9.77538 -6.08423 12.6103
HEad  3.59693 -14.119 6.12988
LeftShoulder1  9.16245 -14.6566 -43.9175
LeftArm  -12.4596 -6.11122 -26.5315
LeftForeArm  33.9716 -40.5424 -7.3904
LeftHand  -0.25398 0.0180481 5.50724
RightShoulder  5.25658 9.81856 33.5141
RightArm  -2.29876 -5.57623 31.1997
RightForeArm  -6.86728 22.6675 5.30026
RightHand  -1.31699 3.53896 -17.3172
LeftUpLeg  -26.731 17.294 1.93185
LeftLeg  73.6415 2.94465 12.2991
LeftFoot  1.01429 0.0122487 -0.153627
LeftToes  1.06246e-005 4.65856e-005 -8.18501e-006
60
root  -38.4946 38.1697 22.0533 -177.199 -58.9125 171.614
RightUpLeg  -18.0878 -8.56183 6.06216
RightLeg  39.2576 -9.69007 -8.67288
RightFoot  -19.2681 -0.709407 -8.33499
RightToes  0.00048216 0.542163 -0.142577
Spine  27.8035 -3.60148 5.6679
Spine1  10.2787 -5.67437 11.1213
HEad  3.32955 -11.9566 5.43839
LeftShoulder1  9.09702 -14.5952 -43.7429
LeftArm  -13.3827 -6.08072 -26.6098
LeftForeArm  32.7543 -40.4356 -7.43452
LeftHand  -0.25398 0.0180481 5.50724
RightShoulder  5.41526 10.2024 33.564
RightArm  -0.522816 -1.24044 31.359
RightForeArm  -7.87023 24.4122 5.60376
RightHand  -1.37834 3.57291 -18.0341
LeftUpLeg  -29.8918 15.3733 1.85016
LeftLeg  67.2368 4.64298 12.7408
LeftFoot  -1.80271 -0.0959177 1.24435
LeftToes  1.06246e-005 4.65856e-005 -8.18501e-006
61
root  -39.9497 38.3975 22.2032 -176.972 -53.845 171.231
RightUpLeg  -16.2096 -4.52054 3.91472
RightLeg  39.3765 -8.94493 -8.07439
RightFoot  -20.1504 -0.690674 -7.18091
RightToes  0.00048216 0.542163 -0.142577
Spine  28.8698 -3.33914 5.04805
Spine1  10.812 -5.24409 9.83477
HEad  2.90871 -10.3924 5.26078
LeftShoulder1  9.04339 -14.5092 -43.6899
LeftArm  -13.8094 -6.85826 -26.2072
LeftForeArm  32.1062 -40.1288 -7.38351
LeftHand  -0.25398 0.0180481 5.50724
RightShoulder  5.56519 10.4912 33.8171
RightArm  0.904558 2.99622 31.3813
RightForeArm  -8.71085 25.9535 6.0118
RightHand  -1.35033 3.26805 -18.2634
LeftUpLeg  -31.4321 13.6841 2.55022
LeftLeg  57.9537 5.94836 10.7512
LeftFoot  -4.00989 -0.0285482 0.800294
LeftToes  1.06246e-005 4.65856e-005 -8.18501e-006
62
root  -41.4308 38.4927 22.2908 -177.279 -48.8488 171.573
RightUpLeg  -14.8477 0.116501 2.3846
RightLeg  40.1309 -8.69406 -8.06456
RightFoot  -21.2265 -0.69389 -6.35982
RightToes  0.00048216 0.542163 -0.142577
Spine  29.622 -2.99259 4.76897
Spine1  11.4299 -4.67952 8.67176
HEad  2.32535 -9.12197 5.41524
LeftShoulder1  9.016 -14.516 -43.5329
LeftArm  -14.2403 -7.87959 -25.7309
LeftForeArm  32.1335 -39.9419 -7.32632
LeftHand  -0.25398 0.0180481 5.50724
RightShoulder  5.73795 10.786 34.2017
RightArm  2.01186 7.14285 31.3594
RightForeArm  -8.17409 26.6524 6.14947
RightHand  -1.26417 2.98763 -17.6766
LeftUpLeg  -31.315 12.7174 4.10358
LeftLeg  45.8528 5.43035 6.44268
LeftFoot  -4.48175 0.0818442 -0.881483
LeftToes  1.06246e-005 4.65856e-005 -8.18501e-006
63
root  -42.9092 38.5222 22.3168 -177.276 -44.1724 171.988
RightUpLeg  -13.961 4.7078 0.940359
RightLeg  40.8426 -8.23904 -7.8508
RightFoot  -22.5505 -0.641261 -4.98726
RightToes  0.00048216 0.542163 -0.142577
Spine  30.0921 -2.68885 4.24548
Spine1  12.0536 -4.20525 7.46528
HEad  1.69381 -7.67984 5.45858
LeftShoulder1  8.91387 -14.5179 -43.0048
LeftArm  -15.1638 -8.63077 -25.4658
LeftForeArm  32.4166 -40.1486 -7.37012
LeftHand  -0.25398 0.0180481 5.50724
RightShoulder  5.87679 11.0718 34.3644
RightArm  3.36377 11.2987 31.8761
RightForeArm  -7.17353 26.2671 6.00999
RightHand  -1.20881 2.95032 -17.0025
LeftUpLeg  -30.2895 12.493 5.65318
LeftLeg  31.8225 3.72272 2.89038
LeftFoot  -3.99239 0.202417 -2.77879
LeftToes  1.06246e-005 4.65856e-005 -8.18501e-006
